<svg width="40" height="40" viewBox="0 0 40 40" fill="none" xmlns="http://www.w3.org/2000/svg">
<path d="M0 20C0 8.95418 8.95418 0 20 0C31.0458 0 40 8.95418 40 20C40 31.0458 31.0458 40 20 40C8.95418 40 0 31.0458 0 20Z" fill="white"/>
<path d="M14.1616 14.1637C14.1616 14.9924 13.4903 15.6639 12.662 15.6639C11.8337 15.6639 11.1616 14.9924 11.1616 14.1637C11.1616 13.335 11.8337 12.6639 12.662 12.6639C13.4903 12.6639 14.1616 13.3354 14.1616 14.1637Z" fill="#00CE90"/>
<path d="M28.8947 14.1637C28.8947 14.9924 28.2226 15.6639 27.3943 15.6639C26.566 15.6639 25.8947 14.9924 25.8947 14.1637C25.8947 13.335 26.566 12.6639 27.3943 12.6639C28.2226 12.6639 28.8947 13.3354 28.8947 14.1637Z" fill="#00CE90"/>
<rect x="10" y="25" width="21" height="1.5" rx="0.75" fill="#00CE90"/>
</svg>
