<svg width="40" height="40" viewBox="0 0 40 40" fill="none" xmlns="http://www.w3.org/2000/svg">
<path d="M0 20C0 8.95418 8.95418 0 20 0C31.0458 0 40 8.95418 40 20C40 31.0458 31.0458 40 20 40C8.95418 40 0 31.0458 0 20Z" fill="white"/>
<path d="M14.1093 15.1476C14.1093 16.5199 13.4496 17.6319 12.6358 17.6319C11.822 17.6319 11.1616 16.5199 11.1616 15.1476C11.1616 13.7752 11.822 12.6639 12.6358 12.6639C13.4496 12.6639 14.1093 13.7759 14.1093 15.1476Z" fill="#EF5DA8"/>
<path d="M28.8423 15.1476C28.8423 16.5199 28.1819 17.6319 27.3681 17.6319C26.5543 17.6319 25.8947 16.5199 25.8947 15.1476C25.8947 13.7752 26.5543 12.6639 27.3681 12.6639C28.1819 12.6639 28.8423 13.7759 28.8423 15.1476Z" fill="#EF5DA8"/>
<path d="M6.56085 21.8909C7.32303 28.6407 13.0474 33.8866 20.0001 33.8866C26.9528 33.8866 32.6772 28.6407 33.4394 21.8909H6.56085Z" fill="#EF5DA8"/>
</svg>
