<svg width="40" height="40" viewBox="0 0 40 40" fill="none" xmlns="http://www.w3.org/2000/svg">
<path d="M0 20C0 8.95418 8.95418 0 20 0C31.0458 0 40 8.95418 40 20C40 31.0458 31.0458 40 20 40C8.95418 40 0 31.0458 0 20Z" fill="white"/>
<path d="M13.1616 16.1637C13.1616 16.9924 12.4903 17.6639 11.662 17.6639C10.8337 17.6639 10.1616 16.9924 10.1616 16.1637C10.1616 15.335 10.8337 14.6639 11.662 14.6639C12.4903 14.6639 13.1616 15.3354 13.1616 16.1637Z" fill="#FF696B"/>
<path d="M29.8945 16.1637C29.8945 16.9924 29.2224 17.6639 28.3942 17.6639C27.5659 17.6639 26.8945 16.9924 26.8945 16.1637C26.8945 15.335 27.5659 14.6639 28.3942 14.6639C29.2224 14.6639 29.8945 15.3354 29.8945 16.1637Z" fill="#FF696B"/>
<path d="M11 28C11 27.6592 20 16.9224 29 28" stroke="#FF696B" stroke-width="1.5" stroke-linecap="round"/>
<path d="M26.4385 12.9798L30.759 10.4632" stroke="#FF696B" stroke-width="1.5" stroke-linecap="round"/>
<path d="M10 10.1131L14.27 12.7145" stroke="#FF696B" stroke-width="1.5" stroke-linecap="round"/>
</svg>
