<svg width="40" height="40" viewBox="0 0 40 40" fill="none" xmlns="http://www.w3.org/2000/svg">
<path d="M0 20C0 8.95418 8.95418 0 20 0C31.0458 0 40 8.95418 40 20C40 31.0458 31.0458 40 20 40C8.95418 40 0 31.0458 0 20Z" fill="white"/>
<path d="M14.1616 14.1637C14.1616 14.9924 13.4903 15.6639 12.662 15.6639C11.8337 15.6639 11.1616 14.9924 11.1616 14.1637C11.1616 13.335 11.8337 12.6639 12.662 12.6639C13.4903 12.6639 14.1616 13.3354 14.1616 14.1637Z" fill="#4DCCC1"/>
<path d="M28.8947 14.1637C28.8947 14.9924 28.2226 15.6639 27.3943 15.6639C26.566 15.6639 25.8947 14.9924 25.8947 14.1637C25.8947 13.335 26.566 12.6639 27.3943 12.6639C28.2226 12.6639 28.8947 13.3354 28.8947 14.1637Z" fill="#4DCCC1"/>
<path d="M13 24.4712C13 26.6368 11.841 28 10 28C8.15896 28 7 26.6368 7 24.4712C7 22.1474 9.15062 19.0102 9.81021 18.1028C9.83368 18.0706 9.8628 18.0447 9.89558 18.0269C9.92836 18.0092 9.96402 18 10.0001 18C10.0362 18 10.0718 18.0092 10.1046 18.0269C10.1374 18.0447 10.1665 18.0706 10.19 18.1028C10.8494 19.0102 13 22.1474 13 24.4712Z" fill="white" stroke="#4DCCC1" stroke-width="1.5" stroke-miterlimit="10"/>
<path d="M15 23.0467C16.8333 21.2134 22 19.5467 26.5 23.0467" stroke="#4DCCC1" stroke-width="1.5" stroke-linecap="round"/>
</svg>
