<?xml version="1.0" encoding="UTF-8"?>
<!DOCTYPE svg PUBLIC "-//W3C//DTD SVG 1.1//EN" "http://www.w3.org/Graphics/SVG/1.1/DTD/svg11.dtd">
<svg xmlns="http://www.w3.org/2000/svg" version="1.1" width="507px" height="512px" style="shape-rendering:geometricPrecision; text-rendering:geometricPrecision; image-rendering:optimizeQuality; fill-rule:evenodd; clip-rule:evenodd" xmlns:xlink="http://www.w3.org/1999/xlink">
<g><path style="opacity:0.808" fill="#9eb5c8" d="M 163.5,3.5 C 159.012,3.10074 154.512,2.7674 150,2.5C 145.615,2.39487 141.448,3.06154 137.5,4.5C 138.347,3.03374 139.68,2.20041 141.5,2C 149.113,-0.0944893 156.447,0.405511 163.5,3.5 Z"/></g>
<g><path style="opacity:0.999" fill="#436f92" d="M 163.5,3.5 C 163.508,8.95909 162.675,14.2924 161,19.5C 159.311,22.6667 157.478,25.6667 155.5,28.5C 153.158,28.5041 151.158,29.3375 149.5,31C 142.139,31.6833 134.805,31.5167 127.5,30.5C 126.77,27.3541 126.437,24.3541 126.5,21.5C 126.5,21.1667 126.5,20.8333 126.5,20.5C 128.417,18.3046 129.751,15.638 130.5,12.5C 130.328,11.5084 130.662,10.8417 131.5,10.5C 133.833,8.83333 135.833,6.83333 137.5,4.5C 141.448,3.06154 145.615,2.39487 150,2.5C 154.512,2.7674 159.012,3.10074 163.5,3.5 Z"/></g>
<g><path style="opacity:0.667" fill="#a2b8ca" d="M 137.5,4.5 C 135.833,6.83333 133.833,8.83333 131.5,10.5C 132.5,7.5 134.5,5.5 137.5,4.5 Z"/></g>
<g><path style="opacity:0.416" fill="#a0b6c8" d="M 130.5,12.5 C 129.751,15.638 128.417,18.3046 126.5,20.5C 126.532,17.0058 127.865,14.3392 130.5,12.5 Z"/></g>
<g><path style="opacity:0.153" fill="#a7bacc" d="M 163.5,3.5 C 164.809,4.624 165.475,6.124 165.5,8C 164.669,13.8293 162.836,19.3293 160,24.5C 158.629,26.0414 157.129,27.3747 155.5,28.5C 157.478,25.6667 159.311,22.6667 161,19.5C 162.675,14.2924 163.508,8.95909 163.5,3.5 Z"/></g>
<g><path style="opacity:0.098" fill="#a4b5c4" d="M 126.5,21.5 C 126.437,24.3541 126.77,27.3541 127.5,30.5C 125.707,30.1164 124.707,28.9497 124.5,27C 124.954,24.9701 125.62,23.1368 126.5,21.5 Z"/></g>
<g><path style="opacity:0.731" fill="#98afc3" d="M 155.5,28.5 C 154.251,30.1361 152.584,31.3028 150.5,32C 142.537,34.1656 134.87,33.6656 127.5,30.5C 134.805,31.5167 142.139,31.6833 149.5,31C 151.158,29.3375 153.158,28.5041 155.5,28.5 Z"/></g>
<g><path style="opacity:1" fill="#ddfef9" d="M 286.5,67.5 C 285.427,68.2506 285.26,69.2506 286,70.5C 302.421,94.3419 319.087,118.009 336,141.5C 344.774,154.729 353.274,168.062 361.5,181.5C 379.224,211.852 388.558,244.686 389.5,280C 388.11,322.95 370.443,357.45 336.5,383.5C 335.505,377.872 335.171,372.206 335.5,366.5C 335.667,354.495 335.5,342.495 335,330.5C 334.819,327.305 334.319,324.305 333.5,321.5C 331.171,289.851 325.504,258.851 316.5,228.5C 315.943,223.835 314.61,219.502 312.5,215.5C 312.5,215.167 312.5,214.833 312.5,214.5C 311.262,209.105 309.262,204.105 306.5,199.5C 299.273,178.441 288.44,159.441 274,142.5C 270.645,137.69 266.979,137.356 263,141.5C 263.403,146.646 265.737,150.979 270,154.5C 280.626,169.09 289.126,184.757 295.5,201.5C 295.259,203.898 295.926,205.898 297.5,207.5C 298.08,212.64 299.747,217.307 302.5,221.5C 303.946,224.254 304.946,227.254 305.5,230.5C 305.41,233.152 306.076,235.485 307.5,237.5C 309.924,244.202 311.591,251.202 312.5,258.5C 312.122,265.305 313.455,271.639 316.5,277.5C 317.642,281.071 318.309,284.738 318.5,288.5C 318.444,293.731 319.111,298.731 320.5,303.5C 320.5,304.167 320.5,304.833 320.5,305.5C 320.527,311.051 321.194,316.384 322.5,321.5C 323.787,343.818 323.787,366.151 322.5,388.5C 281.447,380.399 250.28,358.399 229,322.5C 207.73,279.929 199.563,234.929 204.5,187.5C 206.01,178.382 206.677,169.048 206.5,159.5C 206.852,146.909 205.852,134.576 203.5,122.5C 202.991,111.958 201.324,101.625 198.5,91.5C 196.727,82.2823 196.06,72.9489 196.5,63.5C 196.405,60.2847 197.405,57.4514 199.5,55C 199.164,53.9701 198.497,53.4701 197.5,53.5C 202.32,46.8468 207.986,41.0135 214.5,36C 239.03,26.1325 259.697,31.2992 276.5,51.5C 280.256,56.5849 283.589,61.9182 286.5,67.5 Z"/></g>
<g><path style="opacity:1" fill="#3fdad8" d="M 197.5,53.5 C 198.497,53.4701 199.164,53.9701 199.5,55C 197.405,57.4514 196.405,60.2847 196.5,63.5C 195.344,70.9887 195.178,78.6554 196,86.5C 196.757,88.3146 197.59,89.9812 198.5,91.5C 201.324,101.625 202.991,111.958 203.5,122.5C 204.282,144.157 204.615,165.824 204.5,187.5C 199.563,234.929 207.73,279.929 229,322.5C 250.28,358.399 281.447,380.399 322.5,388.5C 319.429,420.512 319.929,452.512 324,484.5C 326.023,493.467 328.856,502.134 332.5,510.5C 278.832,510.667 225.166,510.5 171.5,510C 169.333,509.167 167.833,507.667 167,505.5C 164.434,489.571 160.768,473.904 156,458.5C 155.617,459.056 155.117,459.389 154.5,459.5C 152.547,451.081 148.214,444.247 141.5,439C 138.429,437.704 135.429,436.538 132.5,435.5C 132.389,434.883 132.056,434.383 131.5,434C 126.039,433.081 120.539,432.581 115,432.5C 102.026,433.877 89.0265,434.877 76,435.5C 68.4037,435.647 60.9037,434.981 53.5,433.5C 50.3257,432.99 47.9923,431.323 46.5,428.5C 45.6597,426.147 44.3264,424.147 42.5,422.5C 39.2879,416.318 37.6212,409.652 37.5,402.5C 36.8662,391.463 35.8662,380.463 34.5,369.5C 37.0593,369.802 39.3926,369.468 41.5,368.5C 49.2666,367.781 56.5999,365.614 63.5,362C 68.0801,356.839 66.9134,353.672 60,352.5C 53.6149,354.479 47.1149,356.146 40.5,357.5C 37.5,357.5 34.5,357.5 31.5,357.5C 31.1298,354.733 29.7964,352.733 27.5,351.5C 23.5758,344.574 18.2425,338.907 11.5,334.5C 9.73784,331.263 7.07117,328.929 3.5,327.5C 1.80584,326.473 0.472504,325.139 -0.5,323.5C -0.5,318.167 -0.5,312.833 -0.5,307.5C 7.40377,298.686 15.0704,289.686 22.5,280.5C 25.6016,278.344 27.7682,275.344 29,271.5C 31.28,265.661 32.9467,259.661 34,253.5C 34.6667,242.833 34.6667,232.167 34,221.5C 34.0835,217.689 33.2501,214.355 31.5,211.5C 31.5,210.5 31.5,209.5 31.5,208.5C 32.8057,202.401 32.8057,196.401 31.5,190.5C 31.5,188.833 31.5,187.167 31.5,185.5C 32.1174,185.389 32.6174,185.056 33,184.5C 34.5658,173.572 37.0658,162.906 40.5,152.5C 45.242,136.797 53.242,123.13 64.5,111.5C 71.137,106.198 77.4704,100.531 83.5,94.5C 84.5794,92.457 86.246,91.1237 88.5,90.5C 97.2334,84.7774 106.233,79.4441 115.5,74.5C 116.298,74.0431 116.631,73.3764 116.5,72.5C 121.756,69.3782 127.423,67.0449 133.5,65.5C 138.165,64.9431 142.498,63.6098 146.5,61.5C 149.187,61.6641 151.854,61.4974 154.5,61C 163.923,58.7254 173.256,56.5588 182.5,54.5C 187.305,53.5128 192.305,53.1795 197.5,53.5 Z"/></g>
<g><path style="opacity:0.71" fill="#7ae4e2" d="M 182.5,54.5 C 173.256,56.5588 163.923,58.7254 154.5,61C 151.854,61.4974 149.187,61.6641 146.5,61.5C 158.005,57.246 170.005,54.9126 182.5,54.5 Z"/></g>
<g><path style="opacity:0.541" fill="#a5edec" d="M 146.5,61.5 C 142.498,63.6098 138.165,64.9431 133.5,65.5C 137.502,63.3902 141.835,62.0569 146.5,61.5 Z"/></g>
<g><path style="opacity:1" fill="#436f92" d="M 358.5,62.5 C 361.735,64.9815 365.402,66.8148 369.5,68C 374.694,74.5873 376.861,82.0873 376,90.5C 374.698,91.0848 373.531,91.7515 372.5,92.5C 365.465,92.6743 358.465,92.3409 351.5,91.5C 344.138,84.7774 340.638,76.444 341,66.5C 346.585,64.1457 352.419,62.8123 358.5,62.5 Z"/></g>
<g><path style="opacity:1" fill="#46dbd9" d="M 286.5,67.5 C 296.867,70.8508 306.533,75.5175 315.5,81.5C 315.414,82.4959 315.748,83.3292 316.5,84C 322.004,87.3555 327.337,90.8555 332.5,94.5C 348.482,107.144 361.149,122.477 370.5,140.5C 370.062,140.435 369.728,140.601 369.5,141C 374.51,149.195 377.843,158.028 379.5,167.5C 373.47,172.175 367.47,176.842 361.5,181.5C 353.274,168.062 344.774,154.729 336,141.5C 319.087,118.009 302.421,94.3419 286,70.5C 285.26,69.2506 285.427,68.2506 286.5,67.5 Z"/></g>
<g><path style="opacity:0.573" fill="#96e9e8" d="M 116.5,72.5 C 116.631,73.3764 116.298,74.0431 115.5,74.5C 106.233,79.4441 97.2334,84.7774 88.5,90.5C 96.4209,82.6311 105.754,76.6311 116.5,72.5 Z"/></g>
<g><path style="opacity:0.557" fill="#93aac0" d="M 358.5,62.5 C 352.419,62.8123 346.585,64.1457 341,66.5C 340.638,76.444 344.138,84.7774 351.5,91.5C 344.647,87.4909 340.48,81.4909 339,73.5C 338.333,70.8333 338.333,68.1667 339,65.5C 342.153,63.4984 345.653,62.3317 349.5,62C 352.696,61.1955 355.696,61.3622 358.5,62.5 Z"/></g>
<g><path style="opacity:0.447" fill="#a1eeed" d="M 315.5,81.5 C 322.045,84.7145 327.711,89.0479 332.5,94.5C 327.337,90.8555 322.004,87.3555 316.5,84C 315.748,83.3292 315.414,82.4959 315.5,81.5 Z"/></g>
<g><path style="opacity:1" fill="#88e9e6" d="M 196.5,63.5 C 196.06,72.9489 196.727,82.2823 198.5,91.5C 197.59,89.9812 196.757,88.3146 196,86.5C 195.178,78.6554 195.344,70.9887 196.5,63.5 Z"/></g>
<g><path style="opacity:0.655" fill="#9db3c6" d="M 358.5,62.5 C 369.665,63.8294 376.165,70.1627 378,81.5C 378.667,84.5 378.667,87.5 378,90.5C 376.556,92.1554 374.722,92.822 372.5,92.5C 373.531,91.7515 374.698,91.0848 376,90.5C 376.861,82.0873 374.694,74.5873 369.5,68C 365.402,66.8148 361.735,64.9815 358.5,62.5 Z"/></g>
<g><path style="opacity:0.829" fill="#a7bcce" d="M 351.5,91.5 C 358.465,92.3409 365.465,92.6743 372.5,92.5C 365.342,95.3966 358.342,95.0633 351.5,91.5 Z"/></g>
<g><path style="opacity:0.467" fill="#a3eceb" d="M 83.5,94.5 C 77.4704,100.531 71.137,106.198 64.5,111.5C 69.9341,104.727 76.2674,99.0607 83.5,94.5 Z"/></g>
<g><path style="opacity:1" fill="#bbe5e1" d="M 485.5,131.5 C 483.046,152.498 479.379,173.332 474.5,194C 474.863,197.395 474.863,200.895 474.5,204.5C 473.307,204.97 472.64,205.97 472.5,207.5C 468.77,227.736 467.77,248.069 469.5,268.5C 466.355,318.329 443.688,356.162 401.5,382C 396.475,385.015 391.142,387.182 385.5,388.5C 378.045,389.556 370.712,391.223 363.5,393.5C 353.669,394.03 344.002,394.697 334.5,395.5C 334.802,398.059 334.468,400.393 333.5,402.5C 333.5,397.833 333.5,393.167 333.5,388.5C 333.944,381.173 334.277,373.84 334.5,366.5C 334.833,366.5 335.167,366.5 335.5,366.5C 335.171,372.206 335.505,377.872 336.5,383.5C 370.443,357.45 388.11,322.95 389.5,280C 388.558,244.686 379.224,211.852 361.5,181.5C 367.47,176.842 373.47,172.175 379.5,167.5C 381.104,166.713 381.771,165.38 381.5,163.5C 382.473,163.013 383.473,162.513 384.5,162C 398.89,147.945 412.89,133.611 426.5,119C 441.672,105.804 458.339,103.471 476.5,112C 482.887,116.94 485.887,123.44 485.5,131.5 Z"/></g>
<g><path style="opacity:1" fill="#0a648c" d="M 306.5,199.5 C 307.348,205.059 309.348,210.059 312.5,214.5C 312.5,214.833 312.5,215.167 312.5,215.5C 313.057,220.165 314.39,224.498 316.5,228.5C 325.504,258.851 331.171,289.851 333.5,321.5C 334.284,336.487 334.617,351.487 334.5,366.5C 334.277,373.84 333.944,381.173 333.5,388.5C 332.683,390.969 332.183,393.635 332,396.5C 331.407,410.163 330.907,423.83 330.5,437.5C 330.501,443.011 330.834,448.344 331.5,453.5C 331.437,458.203 331.771,462.87 332.5,467.5C 333.158,476.626 334.658,485.626 337,494.5C 337.66,496.324 338.827,497.657 340.5,498.5C 340.5,498.833 340.5,499.167 340.5,499.5C 340.942,503.154 341.276,506.821 341.5,510.5C 338.5,510.5 335.5,510.5 332.5,510.5C 328.856,502.134 326.023,493.467 324,484.5C 319.929,452.512 319.429,420.512 322.5,388.5C 323.787,366.151 323.787,343.818 322.5,321.5C 322.624,315.931 321.957,310.598 320.5,305.5C 320.5,304.833 320.5,304.167 320.5,303.5C 320.556,298.269 319.889,293.269 318.5,288.5C 318.309,284.738 317.642,281.071 316.5,277.5C 316.082,270.855 314.749,264.521 312.5,258.5C 311.591,251.202 309.924,244.202 307.5,237.5C 307.59,234.848 306.924,232.515 305.5,230.5C 304.946,227.254 303.946,224.254 302.5,221.5C 301.895,216.322 300.228,211.655 297.5,207.5C 297.741,205.102 297.074,203.102 295.5,201.5C 289.126,184.757 280.626,169.09 270,154.5C 265.737,150.979 263.403,146.646 263,141.5C 266.979,137.356 270.645,137.69 274,142.5C 288.44,159.441 299.273,178.441 306.5,199.5 Z"/></g>
<g><path style="opacity:1" fill="#6de3e0" d="M 203.5,122.5 C 205.852,134.576 206.852,146.909 206.5,159.5C 206.677,169.048 206.01,178.382 204.5,187.5C 204.615,165.824 204.282,144.157 203.5,122.5 Z"/></g>
<g><path style="opacity:0.418" fill="#91e8e7" d="M 370.5,140.5 C 374.935,147.706 378.601,155.373 381.5,163.5C 381.771,165.38 381.104,166.713 379.5,167.5C 377.843,158.028 374.51,149.195 369.5,141C 369.728,140.601 370.062,140.435 370.5,140.5 Z"/></g>
<g><path style="opacity:0.783" fill="#d2eeeb" d="M 485.5,131.5 C 486.158,132.793 486.492,134.293 486.5,136C 483.697,159.166 479.697,181.999 474.5,204.5C 474.863,200.895 474.863,197.395 474.5,194C 479.379,173.332 483.046,152.498 485.5,131.5 Z"/></g>
<g><path style="opacity:0.494" fill="#9eebe9" d="M 40.5,152.5 C 37.0658,162.906 34.5658,173.572 33,184.5C 32.6174,185.056 32.1174,185.389 31.5,185.5C 31.8812,173.628 34.8812,162.628 40.5,152.5 Z"/></g>
<g><path style="opacity:0.039" fill="#b4eeed" d="M 31.5,190.5 C 32.8057,196.401 32.8057,202.401 31.5,208.5C 30.1667,202.5 30.1667,196.5 31.5,190.5 Z"/></g>
<g><path style="opacity:1" fill="#4f93ae" d="M 306.5,199.5 C 309.262,204.105 311.262,209.105 312.5,214.5C 309.348,210.059 307.348,205.059 306.5,199.5 Z"/></g>
<g><path style="opacity:1" fill="#8ec3d0" d="M 295.5,201.5 C 297.074,203.102 297.741,205.102 297.5,207.5C 295.926,205.898 295.259,203.898 295.5,201.5 Z"/></g>
<g><path style="opacity:1" fill="#8ec3d0" d="M 297.5,207.5 C 300.228,211.655 301.895,216.322 302.5,221.5C 299.747,217.307 298.08,212.64 297.5,207.5 Z"/></g>
<g><path style="opacity:1" fill="#5599b1" d="M 312.5,215.5 C 314.61,219.502 315.943,223.835 316.5,228.5C 314.39,224.498 313.057,220.165 312.5,215.5 Z"/></g>
<g><path style="opacity:1" fill="#8cc2cf" d="M 305.5,230.5 C 306.924,232.515 307.59,234.848 307.5,237.5C 306.076,235.485 305.41,233.152 305.5,230.5 Z"/></g>
<g><path style="opacity:0.613" fill="#d3edeb" d="M 474.5,204.5 C 471.701,225.894 470.034,247.228 469.5,268.5C 467.77,248.069 468.77,227.736 472.5,207.5C 472.64,205.97 473.307,204.97 474.5,204.5 Z"/></g>
<g><path style="opacity:1" fill="#05688f" d="M 67.5,249.5 C 73.9972,249.18 76.1639,252.18 74,258.5C 68.1472,264.846 60.9806,267.346 52.5,266C 46.4249,263.516 45.0916,259.516 48.5,254C 52.4841,254.186 56.4841,254.186 60.5,254C 63.2387,252.974 65.572,251.474 67.5,249.5 Z"/></g>
<g><path style="opacity:0.529" fill="#9deceb" d="M 31.5,211.5 C 33.2501,214.355 34.0835,217.689 34,221.5C 34.6667,232.167 34.6667,242.833 34,253.5C 32.9467,259.661 31.28,265.661 29,271.5C 27.7682,275.344 25.6016,278.344 22.5,280.5C 26.5533,272.175 29.7199,263.508 32,254.5C 32.5113,240.16 32.3446,225.826 31.5,211.5 Z"/></g>
<g><path style="opacity:1" fill="#b4e0e4" d="M 312.5,258.5 C 314.749,264.521 316.082,270.855 316.5,277.5C 313.455,271.639 312.122,265.305 312.5,258.5 Z"/></g>
<g><path style="opacity:1" fill="#8cc2cf" d="M 318.5,288.5 C 319.889,293.269 320.556,298.269 320.5,303.5C 319.111,298.731 318.444,293.731 318.5,288.5 Z"/></g>
<g><path style="opacity:1" fill="#81bbc9" d="M 320.5,305.5 C 321.957,310.598 322.624,315.931 322.5,321.5C 321.194,316.384 320.527,311.051 320.5,305.5 Z"/></g>
<g><path style="opacity:0.498" fill="#bdeeec" d="M 3.5,327.5 C 7.07117,328.929 9.73784,331.263 11.5,334.5C 8.14382,332.802 5.47715,330.468 3.5,327.5 Z"/></g>
<g><path style="opacity:1" fill="#88c1ce" d="M 333.5,321.5 C 334.319,324.305 334.819,327.305 335,330.5C 335.5,342.495 335.667,354.495 335.5,366.5C 335.167,366.5 334.833,366.5 334.5,366.5C 334.617,351.487 334.284,336.487 333.5,321.5 Z"/></g>
<g><path style="opacity:1" fill="#03658c" d="M 41.5,368.5 C 38.8333,368.5 36.1667,368.5 33.5,368.5C 33.9227,366.219 33.256,364.552 31.5,363.5C 31.5,363.167 31.5,362.833 31.5,362.5C 32.4345,361.432 32.7678,360.099 32.5,358.5C 35.3854,358.806 38.0521,358.473 40.5,357.5C 47.1149,356.146 53.6149,354.479 60,352.5C 66.9134,353.672 68.0801,356.839 63.5,362C 56.5999,365.614 49.2666,367.781 41.5,368.5 Z"/></g>
<g><path style="opacity:0.302" fill="#9ae9ea" d="M 27.5,351.5 C 29.7964,352.733 31.1298,354.733 31.5,357.5C 31.1667,358.167 30.8333,358.833 30.5,359.5C 29.129,357.064 28.129,354.397 27.5,351.5 Z"/></g>
<g><path style="opacity:1" fill="#3f9bb1" d="M 31.5,357.5 C 34.5,357.5 37.5,357.5 40.5,357.5C 38.0521,358.473 35.3854,358.806 32.5,358.5C 32.7678,360.099 32.4345,361.432 31.5,362.5C 30.596,361.791 30.2627,360.791 30.5,359.5C 30.8333,358.833 31.1667,358.167 31.5,357.5 Z"/></g>
<g><path style="opacity:1" fill="#56aec0" d="M 31.5,363.5 C 33.256,364.552 33.9227,366.219 33.5,368.5C 36.1667,368.5 38.8333,368.5 41.5,368.5C 39.3926,369.468 37.0593,369.802 34.5,369.5C 33.8333,369.5 33.1667,369.5 32.5,369.5C 31.6586,367.621 31.3253,365.621 31.5,363.5 Z"/></g>
<g><path style="opacity:0.271" fill="#a0edec" d="M 32.5,369.5 C 33.1667,369.5 33.8333,369.5 34.5,369.5C 35.8662,380.463 36.8662,391.463 37.5,402.5C 36.8826,402.389 36.3826,402.056 36,401.5C 34.7428,390.837 33.5762,380.17 32.5,369.5 Z"/></g>
<g><path style="opacity:1" fill="#dcfef9" d="M 294.5,447.5 C 292.964,450.092 290.631,451.092 287.5,450.5C 260.595,452.647 237.428,444.647 218,426.5C 207.183,414.016 205.85,400.682 214,386.5C 223.497,376.003 234.663,373.836 247.5,380C 260.274,386.299 270.44,395.466 278,407.5C 284.735,417.878 290.069,428.878 294,440.5C 294.497,442.81 294.663,445.143 294.5,447.5 Z"/></g>
<g><path style="opacity:0.72" fill="#d5eeec" d="M 385.5,388.5 C 377.01,392.376 368.01,394.876 358.5,396C 350.4,398 342.4,397.833 334.5,395.5C 344.002,394.697 353.669,394.03 363.5,393.5C 370.712,391.223 378.045,389.556 385.5,388.5 Z"/></g>
<g><path style="opacity:0.458" fill="#5f9ab5" d="M 333.5,388.5 C 333.5,393.167 333.5,397.833 333.5,402.5C 332.866,418.492 332.533,434.492 332.5,450.5C 332.737,451.791 332.404,452.791 331.5,453.5C 330.834,448.344 330.501,443.011 330.5,437.5C 330.907,423.83 331.407,410.163 332,396.5C 332.183,393.635 332.683,390.969 333.5,388.5 Z"/></g>
<g><path style="opacity:1" fill="#bee6e2" d="M 373.5,476.5 C 373.859,474.629 374.859,473.129 376.5,472C 371.327,471.99 368.66,469.49 368.5,464.5C 373.154,450.858 379.654,438.192 388,426.5C 397.312,415.474 408.145,413.64 420.5,421C 430.418,433.416 429.084,444.749 416.5,455C 404.602,462.615 391.936,468.615 378.5,473C 377.211,474.802 375.544,475.969 373.5,476.5 Z"/></g>
<g><path style="opacity:0.071" fill="#d0f4f4" d="M 42.5,422.5 C 44.3264,424.147 45.6597,426.147 46.5,428.5C 44.1782,427.198 42.8449,425.198 42.5,422.5 Z"/></g>
<g><path style="opacity:0.5" fill="#83e6e5" d="M 132.5,435.5 C 127.662,435.291 122.829,434.958 118,434.5C 99.2331,436.956 80.3997,437.789 61.5,437C 58.5243,436.295 55.8577,435.129 53.5,433.5C 60.9037,434.981 68.4037,435.647 76,435.5C 89.0265,434.877 102.026,433.877 115,432.5C 120.539,432.581 126.039,433.081 131.5,434C 132.056,434.383 132.389,434.883 132.5,435.5 Z"/></g>
<g><path style="opacity:1" fill="#07678e" d="M 287.5,450.5 C 290.631,451.092 292.964,450.092 294.5,447.5C 295.29,446.391 295.79,445.058 296,443.5C 301.333,450.167 307.333,456.167 314,461.5C 315.176,468.194 312.343,470.694 305.5,469C 298.675,463.466 292.675,457.299 287.5,450.5 Z"/></g>
<g><path style="opacity:0.384" fill="#89b3c7" d="M 332.5,450.5 C 333.491,457.323 334.158,464.323 334.5,471.5C 333.833,470.167 333.167,468.833 332.5,467.5C 331.771,462.87 331.437,458.203 331.5,453.5C 332.404,452.791 332.737,451.791 332.5,450.5 Z"/></g>
<g><path style="opacity:1" fill="#16688f" d="M 368.5,464.5 C 368.66,469.49 371.327,471.99 376.5,472C 374.859,473.129 373.859,474.629 373.5,476.5C 373.158,477.338 372.492,477.672 371.5,477.5C 366.043,480.734 360.71,484.234 355.5,488C 347.496,492.739 343.829,490.572 344.5,481.5C 347.894,478.779 351.561,476.446 355.5,474.5C 359.02,473.647 361.687,471.647 363.5,468.5C 365.167,467.167 366.833,465.833 368.5,464.5 Z"/></g>
<g><path style="opacity:0.2" fill="#a2c4d5" d="M 363.5,468.5 C 361.687,471.647 359.02,473.647 355.5,474.5C 357.878,472.122 360.545,470.122 363.5,468.5 Z"/></g>
<g><path style="opacity:0.569" fill="#6099b4" d="M 332.5,467.5 C 333.167,468.833 333.833,470.167 334.5,471.5C 335.735,480.678 337.735,489.678 340.5,498.5C 338.827,497.657 337.66,496.324 337,494.5C 334.658,485.626 333.158,476.626 332.5,467.5 Z"/></g>
<g><path style="opacity:0.575" fill="#9ae5e4" d="M 332.5,510.5 C 335.5,510.5 338.5,510.5 341.5,510.5C 341.5,510.833 341.5,511.167 341.5,511.5C 284.5,511.5 227.5,511.5 170.5,511.5C 168.193,510.023 166.36,508.023 165,505.5C 162.071,490.018 158.571,474.685 154.5,459.5C 155.117,459.389 155.617,459.056 156,458.5C 160.768,473.904 164.434,489.571 167,505.5C 167.833,507.667 169.333,509.167 171.5,510C 225.166,510.5 278.832,510.667 332.5,510.5 Z"/></g>
<g><path style="opacity:0.596" fill="#78a8be" d="M 371.5,477.5 C 370.972,478.721 370.305,479.887 369.5,481C 363.172,485.747 356.339,489.58 349,492.5C 343.455,491.422 341.455,488.089 343,482.5C 343.383,481.944 343.883,481.611 344.5,481.5C 343.829,490.572 347.496,492.739 355.5,488C 360.71,484.234 366.043,480.734 371.5,477.5 Z"/></g>
<g><path style="opacity:0.643" fill="#6ea0b9" d="M 340.5,499.5 C 343.869,502.976 344.202,506.642 341.5,510.5C 341.276,506.821 340.942,503.154 340.5,499.5 Z"/></g>
</svg>
