<svg width="22" height="23" viewBox="0 0 22 23" fill="none" xmlns="http://www.w3.org/2000/svg">
<path d="M21.6581 11.2956C21.6581 10.387 21.5843 9.724 21.4248 9.03646H11.05V13.1372H17.1398C17.017 14.1563 16.3541 15.691 14.8807 16.7223L14.86 16.8596L18.1403 19.4008L18.3676 19.4235C20.4548 17.4958 21.6581 14.6596 21.6581 11.2956Z" fill="#4285F4"/>
<path d="M11.05 22.1C14.0334 22.1 16.5381 21.1177 18.3675 19.4235L14.8806 16.7223C13.9475 17.373 12.6951 17.8273 11.05 17.8273C8.12786 17.8273 5.64777 15.8997 4.76368 13.2355L4.6341 13.2465L1.2232 15.8862L1.17859 16.0102C2.99568 19.6198 6.72814 22.1 11.05 22.1Z" fill="#34A853"/>
<path d="M4.76373 13.2355C4.53046 12.5479 4.39545 11.8112 4.39545 11.05C4.39545 10.2887 4.53046 9.5521 4.75146 8.86456L4.74528 8.71813L1.29164 6.03599L1.17864 6.08974C0.429727 7.58765 0 9.26974 0 11.05C0 12.8303 0.429727 14.5123 1.17864 16.0102L4.76373 13.2355Z" fill="#FBBC05"/>
<path d="M11.05 4.27264C13.1249 4.27264 14.5245 5.16891 15.3226 5.91791L18.4411 2.873C16.5259 1.09273 14.0334 0 11.05 0C6.72814 0 2.99568 2.48009 1.17859 6.08973L4.75141 8.86455C5.64777 6.20027 8.12786 4.27264 11.05 4.27264Z" fill="#EB4335"/>
</svg>
